<?xml version="1.0" encoding="UTF-8"?>
<!DOCTYPE svg PUBLIC "-//W3C//DTD SVG 1.1//EN" "http://www.w3.org/Graphics/SVG/1.1/DTD/svg11.dtd">
<!-- Creator: CorelDRAW X6 -->
<svg xmlns="http://www.w3.org/2000/svg" xml:space="preserve" width="4in" height="4in" version="1.1" style="shape-rendering:geometricPrecision; text-rendering:geometricPrecision; image-rendering:optimizeQuality; fill-rule:evenodd; clip-rule:evenodd"
viewBox="0 0 4000 4000"
 xmlns:xlink="http://www.w3.org/1999/xlink">
 <defs>
  <style type="text/css">
   <![CDATA[
    .fil0 {fill:#A41E37;fill-rule:nonzero}
   ]]>
  </style>
 </defs>
 <g id="Layer_x0020_1">
  <metadata id="CorelCorpID_0Corel-Layer"/>
  <path class="fil0" d="M1572 2120l-119 0c-14,0 -26,-1 -30,-17 -5,-21 15,-25 15,-25 -2,1 -7,10 -3,20 3,9 11,7 22,7l134 0c0,13 -19,14 -19,14z"/>
  <path class="fil0" d="M1540 2638l-58 0c-10,0 -19,-2 -22,-13 -4,-13 10,-16 10,-16 -1,1 -3,5 0,12 2,6 8,6 16,6l68 0c0,11 -14,11 -14,11z"/>
  <path class="fil0" d="M1590 2132l-161 0c-15,0 -29,-13 -29,-33 0,-19 14,-33 29,-33l161 0c15,0 29,14 29,33 0,18 -14,33 -29,33zm-39 40l-83 0c-14,0 -27,-7 -35,-17l152 0c-8,10 -21,17 -35,17zm-58 25c18,1 40,1 64,-3l-17 378 -40 0 -7 -375zm-33 -3c0,0 6,1 16,2l14 376 -11 0 -19 -378zm122 429c0,15 -13,28 -28,28l-87 0c-16,0 -28,-13 -28,-28 0,-15 13,-28 28,-28l87 0c16,0 28,13 28,28zm-53 206c0,10 -8,19 -18,19 -10,0 -18,-8 -18,-19l-8 -154 10 0 6 149c0,11 5,14 5,14l-3 -162 34 0 -7 154zm-143 -840c0,-20 8,-37 17,-55 11,-22 22,-46 17,-76 11,4 25,12 38,24 -8,9 -16,19 -21,24 -33,39 -46,86 -10,138l-5 0c0,0 -35,-12 -35,-55zm116 -172c29,24 66,68 66,120 0,46 -40,100 -49,106 -8,-10 -17,-30 -17,-52 0,-38 19,-61 19,-61 0,0 -28,18 -32,53 -2,17 2,35 14,59l-17 0c-5,-7 -37,-48 -10,-93 5,-8 25,-37 27,-43 3,-7 3,-14 3,-14 -3,5 -9,12 -9,12 -6,6 -26,27 -32,35 -39,47 -1,99 1,104 -2,0 -16,0 -16,0 -17,-20 -23,-39 -21,-68 4,-65 82,-73 74,-159zm108 55c-8,49 7,89 9,95 14,49 -24,72 -32,77l-1 0 -38 0c23,-31 42,-71 42,-106 0,-11 -1,-21 -3,-31l-3 -10c10,-11 18,-19 26,-23zm7 180c20,-18 38,-49 25,-92l-1 -1c0,0 -20,-49 -3,-103l6 -18 -19 2c-3,0 -25,4 -51,30 -22,-45 -64,-78 -108,-100 16,51 18,70 5,92 -30,-28 -67,-33 -68,-34l-21 -3 9 20c14,31 3,53 -10,78 -9,19 -19,40 -19,66 0,34 17,56 34,68 -11,10 -19,26 -19,42 0,22 11,40 28,50 5,17 17,31 33,39l19 386c-23,5 -41,26 -41,50 0,27 20,48 46,51l8 155c0,23 19,41 42,41 24,0 41,-19 42,-41l7 -155c26,-3 46,-25 46,-51 0,-25 -18,-46 -42,-50l17 -385c16,-8 29,-23 34,-40 17,-10 27,-29 27,-49 0,-19 -10,-37 -25,-47z"/>
  <path class="fil0" d="M2536 2120l-119 0c-14,0 -26,-1 -30,-17 -5,-21 15,-25 15,-25 -2,1 -7,10 -3,20 3,9 11,7 22,7l134 0c0,13 -19,14 -19,14z"/>
  <path class="fil0" d="M2504 2638l-58 0c-10,0 -19,-2 -22,-13 -4,-13 10,-16 10,-16 -1,1 -3,5 0,12 2,6 8,6 16,6l68 0c0,11 -14,11 -14,11z"/>
  <path class="fil0" d="M2553 2132l-161 0c-15,0 -29,-13 -29,-33 0,-19 14,-33 29,-33l161 0c15,0 29,14 29,33 0,18 -14,33 -29,33zm-39 40l-83 0c-14,0 -27,-7 -35,-17l152 0c-8,10 -21,17 -35,17zm-58 25c18,1 40,1 64,-3l-17 378 -40 0 -7 -375zm-33 -3c0,0 6,1 16,2l14 376 -11 0 -19 -378zm122 429c0,15 -13,28 -28,28l-87 0c-16,0 -28,-13 -28,-28 0,-15 13,-28 28,-28l87 0c16,0 28,13 28,28zm-53 206c0,10 -8,19 -18,19 -10,0 -19,-8 -19,-19l-8 -154 10 0 5 149c0,11 5,14 5,14l-3 -162 34 0 -7 154zm-143 -840c0,-20 8,-37 17,-55 11,-22 22,-46 17,-76 11,4 25,12 38,24 -8,9 -16,19 -21,24 -33,39 -45,86 -10,138l-5 0c0,0 -35,-12 -35,-55zm116 -172c29,24 66,68 66,120 0,46 -40,100 -49,106 -8,-10 -17,-30 -17,-52 0,-38 19,-61 19,-61 0,0 -28,18 -32,53 -2,17 2,35 14,59l-17 0c-4,-7 -37,-48 -10,-93 5,-8 25,-37 27,-43 3,-7 3,-14 3,-14 -3,5 -9,12 -9,12 -6,6 -26,27 -32,35 -39,47 -1,99 1,104 -2,0 -16,0 -16,0 -17,-20 -23,-39 -21,-68 4,-65 82,-73 74,-159zm108 55c-8,49 7,89 9,95 14,49 -24,72 -32,77l-1 0 -37 0c23,-31 42,-71 42,-106 0,-11 -1,-21 -3,-31l-3 -10c10,-11 18,-19 26,-23zm7 180c20,-18 38,-49 25,-92l-1 -1c0,0 -20,-49 -3,-103l6 -18 -19 2c-3,0 -25,4 -51,30 -22,-45 -64,-78 -108,-100 16,51 18,70 5,92 -30,-28 -66,-33 -68,-34l-21 -3 9 20c14,31 3,53 -10,78 -9,19 -19,40 -19,66 0,34 17,56 34,68 -11,10 -19,26 -19,42 0,22 11,40 28,50 5,17 17,31 33,39l19 386c-23,5 -41,26 -41,50 0,27 20,48 46,51l8 155c0,23 19,41 42,41 24,0 41,-19 42,-41l7 -155c26,-3 46,-25 46,-51 0,-25 -18,-46 -42,-50l17 -385c16,-8 29,-23 34,-40 17,-10 27,-29 27,-49 0,-19 -10,-37 -25,-47z"/>
  <path class="fil0" d="M2106 2207l-213 0c-28,0 -50,-22 -50,-50 0,-28 22,-50 50,-50l213 0c4,0 7,0 11,1l0 0c0,0 0,0 1,0 22,5 39,25 39,49 0,28 -22,50 -50,50zm-43 54l-130 0c-21,0 -39,-12 -46,-30 2,0 4,0 6,0l213 0c2,0 5,0 7,0 -8,18 -28,31 -50,31zm-16 558l-62 0 -7 -534 84 0c3,0 6,0 9,-1l-25 535zm57 66c0,23 -19,42 -42,42l-124 0c-23,0 -42,-19 -42,-42 0,-23 19,-42 42,-42l124 0c23,0 42,19 42,42zm-73 284c0,17 -14,32 -32,32 -18,0 -32,-14 -32,-32l-10 -217 20 0 8 212c0,16 7,19 7,19l-4 -231 52 0 -10 218zm-81 -883l22 534 -21 0 -25 -534c2,0 4,0 6,0l17 0zm-127 -280c0,-29 12,-53 24,-78 16,-33 33,-67 21,-111 18,6 43,17 65,40 -5,7 -11,13 -17,20 -5,5 -9,10 -15,16 -7,7 -85,90 -19,192 -3,0 -6,1 -8,2 -8,-3 -50,-23 -51,-80zm156 -183c7,-21 6,-44 3,-63 37,28 100,89 101,165 1,78 -50,138 -69,158l-3 0c-11,-14 -24,-41 -24,-71 0,-53 26,-84 26,-84 0,0 -38,25 -44,74 -3,24 2,49 18,82l-23 0c-7,-11 -50,-66 -13,-129 6,-10 34,-51 38,-59 4,-10 4,-20 4,-20 -5,8 -13,17 -13,17 -8,9 -36,37 -44,48 -53,64 -3,135 1,143l-26 0c-73,-95 4,-171 7,-174l1 -1c5,-6 10,-11 14,-16 19,-20 35,-38 46,-69zm165 11c-15,72 7,132 10,139 19,66 -26,99 -43,110 -2,0 -5,0 -8,0l-58 0c25,-31 61,-87 61,-158 0,-18 -3,-36 -9,-52 18,-21 34,-32 46,-39zm-4 258c25,-21 56,-61 37,-126l0 -1c0,-1 -28,-70 -4,-146l6 -18 -19 2c-2,0 -34,5 -72,45 -37,-77 -115,-124 -120,-127l-29 -17 11 32c5,13 15,52 5,79 -3,8 -6,15 -10,22 -41,-41 -93,-48 -96,-48l-21 -3 9 20c20,45 4,76 -13,112 -13,27 -27,54 -26,89 0,48 25,78 48,93 -18,14 -29,35 -29,59 0,29 17,54 42,67 4,25 21,45 43,55l25 542c-31,5 -54,32 -54,65 0,34 27,63 60,65l10 218c0,31 25,56 56,56 31,0 56,-25 56,-55l10 -218c35,-1 63,-30 63,-66 0,-33 -25,-61 -57,-65l25 -542c23,-10 40,-31 44,-56 24,-12 40,-37 40,-66 0,-28 -16,-52 -38,-65z"/>
  <path class="fil0" d="M1881 2158c-6,-15 2,-30 4,-32 0,0 -30,5 -23,39 6,26 23,28 46,28l193 0c0,0 23,2 31,-19l-215 0c-19,0 -30,-2 -36,-16z"/>
  <path class="fil0" d="M1929 2887c-5,-12 1,-24 3,-25 0,0 -24,4 -18,31 4,20 18,22 36,22l105 0c0,0 18,2 24,-15l-123 0c-15,0 -24,-2 -28,-12z"/>
  <path class="fil0" d="M2897 2336c-140,343 -409,811 -894,1107 -485,-294 -756,-762 -897,-1104 -130,-315 -178,-583 -190,-661 58,-33 116,-48 181,-48 0,0 0,0 1,0 46,0 111,8 148,19l22 7c19,6 38,11 58,17l0 0c72,21 153,41 214,41 0,0 0,0 0,0 69,0 176,-9 296,-51 34,-12 75,-25 119,-31l40 -3c1,0 2,0 2,0l61 5c37,6 72,18 102,28 120,42 227,51 295,51 0,0 0,0 1,0 41,0 95,-9 170,-30l0 0c31,-8 62,-18 92,-26l33 -10c37,-11 104,-19 150,-20 0,0 0,0 0,0 65,0 125,16 182,47 -12,77 -58,346 -188,663zm-1332 -956c-15,37 -26,77 -31,118 -55,-2 -128,-21 -193,-39l-81 -23c-41,-12 -109,-21 -159,-21 0,0 0,0 -1,0 -72,0 -146,17 -210,47 -3,-40 -5,-84 -6,-133l680 51zm-678 -212l706 155c-6,11 -12,22 -17,33l-691 -92c0,-31 1,-63 2,-95zm24 -258l734 340c-14,16 -27,33 -39,51l-716 -201c4,-61 11,-125 21,-190zm19 -110c28,6 84,17 157,25l596 385c-8,7 -16,15 -23,23l-737 -394c2,-13 4,-26 7,-38zm317 33c77,0 149,-7 216,-19l301 337c-23,13 -44,28 -64,45l-496 -363c14,0 29,1 44,1zm384 -65l199 350c-14,5 -27,11 -40,17l-254 -339c33,-9 64,-18 94,-29zm264 -127l61 448c-34,3 -66,10 -97,20l-167 -364c84,-34 152,-72 204,-105zm105 -77c15,13 30,24 45,36l-27 488c-6,0 -11,-1 -17,-1 0,0 0,0 -1,0 -6,0 -12,1 -18,1l-27 -489c19,-14 34,-27 44,-35zm104 77c71,46 142,80 202,105l-167 363c-31,-10 -63,-16 -96,-19l61 -448zm262 127c43,15 76,24 94,28l-254 339c-13,-6 -26,-12 -40,-17l199 -350zm170 43c74,13 152,20 231,20 10,0 18,0 28,-1l-497 364c-20,-16 -41,-31 -64,-44l302 -339zm373 12c75,-8 131,-19 160,-26 3,13 5,26 7,38l-738 395c-8,-8 -15,-15 -24,-23l595 -385zm179 84c10,67 17,132 22,194l-715 200c-12,-19 -26,-37 -42,-54l735 -341zm27 357l-691 92c-5,-11 -11,-22 -17,-33l706 -155c1,33 2,64 2,95zm-491 225l-5 -19c-43,12 -104,26 -152,28 -5,-41 -16,-80 -31,-117l680 -51c-1,47 -3,90 -6,128 -62,-29 -135,-45 -204,-45 0,0 0,0 0,0 -44,0 -116,8 -161,21l-31 9c-30,9 -62,18 -94,27l5 19zm-622 -75l0 3 0 -3c-16,0 -32,1 -47,3l0 0c-47,6 -91,20 -127,33 -98,35 -188,46 -253,49 29,-212 209,-370 426,-371 0,0 0,0 1,0 214,0 396,160 426,369 -65,-3 -152,-14 -249,-48 -29,-10 -68,-23 -109,-30l0 1 0 -1c-23,-4 -45,-6 -66,-6zm-458 126c0,0 0,0 0,0 48,0 115,-5 191,-22 33,-7 68,-17 104,-30 34,-12 76,-25 119,-31l42 -3 60 5c38,7 74,18 102,28 44,16 87,26 127,34 67,13 125,17 169,17 0,0 0,0 1,0 42,0 94,-9 170,-30 32,-9 64,-18 95,-27l31 -9c37,-11 104,-19 150,-20 0,0 0,0 0,0 69,0 141,18 201,49 -1,16 -3,31 -4,45 -62,-31 -130,-47 -199,-47 0,0 0,0 -1,0 -44,0 -117,8 -161,21l-33 10c-29,9 -60,18 -91,26 -45,12 -111,27 -160,28 -65,0 -167,-8 -282,-48 -14,-5 -31,-10 -49,-16 -19,-5 -39,-11 -60,-14 -23,-4 -45,-6 -67,-6 -16,0 -31,1 -47,3l0 0c-25,3 -49,9 -71,15 -20,6 -39,12 -56,18 -115,40 -217,49 -282,49 0,0 0,0 0,0 -56,0 -134,-20 -203,-40l-80 -23c-41,-12 -109,-21 -159,-21 0,0 -1,0 -1,0 -69,0 -137,16 -199,47 -1,-13 -3,-28 -4,-43 61,-32 135,-50 206,-51 0,0 0,0 1,0 46,0 111,8 148,19l81 23 6 -19 -6 19c76,22 154,41 215,41zm1077 124l-5 -19c-71,19 -122,28 -159,28 0,0 0,0 -1,0 -66,0 -168,-8 -282,-49 -31,-11 -68,-23 -109,-30 -41,-7 -76,-8 -114,-3 -48,6 -91,20 -127,33 -115,40 -217,49 -282,49 0,0 0,0 0,0 -56,0 -134,-20 -203,-40l-6 19 5 -19c-20,-6 -39,-11 -58,-17l-23 -7c-41,-12 -109,-21 -159,-21 0,0 0,0 -1,0 -68,0 -128,15 -188,46 -2,-10 -4,-25 -6,-43 59,-32 126,-50 194,-50 0,0 1,0 1,0 46,0 110,8 147,19l81 23 6 -19 -6 19c76,22 154,41 214,41 0,0 0,0 0,0 69,0 175,-9 296,-52 35,-12 76,-25 119,-31l39 -3c1,0 2,0 2,0l61 5c37,6 72,18 102,28 120,42 226,51 295,51 0,0 1,0 1,0 41,0 94,-9 170,-29 31,-8 63,-18 92,-26l33 -10c36,-11 104,-19 150,-20 0,0 0,0 1,0 68,0 135,18 194,50 -2,17 -4,31 -6,41 -59,-30 -121,-44 -189,-44 0,0 0,0 0,0 -44,0 -116,8 -161,21l-34 10c-29,9 -60,18 -91,26l5 19zm532 -502l-4 -70c-5,-64 -12,-132 -23,-201l-8 -47c-5,-25 -9,-50 -15,-75l-5 -21 -21 6c-1,0 -34,10 -90,19l-136 15c-27,2 -56,3 -86,3 -79,0 -157,-7 -232,-21l-48 -9c-1,0 -2,0 -3,0 -1,0 -39,-8 -98,-28l-63 -24c-63,-25 -139,-62 -213,-112l-62 -45c-12,-9 -23,-19 -35,-29l-14 -12 -13 13c0,0 -12,11 -33,28l-64 46c-52,35 -124,76 -215,112l-64 24c-31,10 -63,20 -97,29 -1,0 -2,0 -3,1l-55 12c-65,12 -135,18 -209,18 -36,0 -71,-1 -103,-4l-136 -16c-54,-9 -87,-17 -88,-17l-20 -5 -4 20c-4,20 -8,40 -12,60l-10 61c-11,68 -18,134 -22,197l-4 70c-1,34 -2,67 -2,99l0 68c4,191 27,322 28,333 2,16 43,324 195,694 144,348 418,824 913,1124l21 13 21 -13c494,-301 768,-778 910,-1127 152,-371 192,-678 193,-695 2,-11 24,-141 28,-330l0 -68c0,-32 -1,-64 -2,-98z"/>
 </g>
</svg>
