<?xml version="1.0" standalone="no"?>
<!DOCTYPE svg PUBLIC "-//W3C//DTD SVG 20010904//EN"
 "http://www.w3.org/TR/2001/REC-SVG-20010904/DTD/svg10.dtd">
<svg version="1.0" xmlns="http://www.w3.org/2000/svg"
 width="16.000000pt" height="16.000000pt" viewBox="0 0 16.000000 16.000000"
 preserveAspectRatio="xMidYMid meet">
<metadata>
Created by potrace 1.11, written by Peter Selinger 2001-2013
</metadata>
<g transform="translate(0.000000,16.000000) scale(0.001778,-0.001778)"
fill="#000000" stroke="none">
<path d="M0 4500 l0 -4500 4500 0 4500 0 0 4500 0 4500 -4500 0 -4500 0 0
-4500z m4567 3409 c242 -194 548 -356 866 -459 328 -107 765 -144 1162 -100
177 19 389 56 437 75 20 8 27 -12 62 -210 69 -380 90 -669 83 -1140 -8 -532
-59 -911 -192 -1430 -407 -1587 -1261 -2857 -2407 -3578 l-91 -57 -46 27
c-177 103 -454 306 -643 472 -733 644 -1306 1541 -1665 2606 -348 1033 -444
2014 -292 2980 21 131 57 316 62 322 2 1 44 -6 94 -17 50 -11 163 -29 250 -40
436 -57 799 -40 1143 51 364 96 811 325 1028 525 26 24 50 43 54 44 4 0 47
-32 95 -71z"/>
<path d="M4427 7814 c-42 -33 -47 -41 -47 -76 0 -46 47 -906 55 -1023 l6 -80
40 -1 c38 -1 39 0 39 31 0 18 14 274 30 570 17 296 29 538 28 539 -2 1 -24 18
-50 39 -25 20 -48 37 -51 37 -2 0 -25 -16 -50 -36z"/>
<path d="M4120 7607 c-58 -34 -161 -87 -230 -119 -77 -35 -124 -62 -122 -70 2
-7 87 -197 190 -421 180 -393 188 -408 212 -404 79 15 195 39 198 42 4 4 -127
975 -136 1006 l-7 27 -105 -61z"/>
<path d="M4720 7662 c0 -12 -128 -959 -135 -997 l-5 -31 87 -17 c49 -10 99
-20 113 -23 24 -5 31 8 205 387 99 216 185 406 192 421 l12 28 -72 32 c-98 43
-267 131 -333 173 -58 37 -64 40 -64 27z"/>
<path d="M3497 7341 c-48 -15 -89 -29 -90 -32 -1 -3 130 -181 291 -397 l293
-391 43 21 43 21 -91 161 c-320 564 -369 646 -385 645 -9 -1 -56 -13 -104 -28z"/>
<path d="M5102 6968 l-230 -403 37 -17 c20 -10 41 -17 48 -15 16 3 595 775
585 780 -11 7 -189 57 -201 57 -5 0 -113 -181 -239 -402z"/>
<path d="M6910 7294 c-30 -7 -111 -21 -180 -30 l-125 -18 -650 -419 c-357
-231 -670 -433 -694 -450 l-43 -29 25 -25 24 -25 854 457 c470 251 858 461
863 465 9 9 -2 91 -12 89 -4 -1 -32 -7 -62 -15z"/>
<path d="M1975 7288 c-2 -7 -6 -26 -7 -43 -3 -32 -51 -5 1365 -762 l349 -186
25 25 25 25 -693 448 -692 448 -126 18 c-69 10 -148 23 -174 29 -61 13 -67 13
-72 -2z"/>
<path d="M5380 6882 c-193 -216 -350 -395 -348 -396 75 -54 142 -96 148 -94 4
2 262 190 574 418 l567 415 -73 2 c-122 4 -352 23 -436 37 l-80 12 -352 -394z"/>
<path d="M3120 7254 c-41 -8 -169 -17 -285 -22 l-210 -7 410 -300 c225 -165
484 -354 574 -421 l165 -121 57 41 c31 23 64 46 74 51 16 10 -26 60 -330 400
-191 215 -355 391 -364 391 -9 1 -50 -4 -91 -12z"/>
<path d="M6164 6652 l-852 -394 46 -64 c38 -52 50 -63 67 -57 11 3 385 108
830 233 l810 228 -2 78 c-3 89 -32 343 -42 360 -4 7 -321 -135 -857 -384z"/>
<path d="M1921 6958 c-27 -202 -39 -358 -26 -358 3 0 375 -104 826 -230 452
-127 825 -229 829 -228 10 4 93 109 88 112 -7 6 -1695 786 -1700 786 -3 0 -11
-37 -17 -82z"/>
<path d="M4360 6529 c-216 -23 -430 -128 -591 -288 -125 -126 -215 -281 -258
-445 -34 -129 -38 -123 77 -113 143 12 319 50 498 108 185 60 277 78 394 79
136 0 176 -8 483 -103 132 -41 300 -74 426 -84 l83 -6 -7 44 c-13 76 -46 171
-90 259 -155 307 -447 511 -790 550 -100 11 -117 11 -225 -1z"/>
<path d="M1876 6418 c-3 -13 -6 -62 -6 -110 0 -67 3 -88 13 -88 8 0 366 -47
797 -105 431 -58 788 -105 795 -105 18 0 48 70 32 75 -6 2 -365 81 -797 175
-432 94 -795 174 -806 176 -16 4 -23 0 -28 -18z"/>
<path d="M6261 6259 c-447 -98 -815 -180 -818 -182 -9 -10 33 -67 50 -67 24 0
1591 210 1594 214 2 2 0 50 -4 108 l-8 105 -814 -178z"/>
<path d="M1875 5943 c4 -65 8 -132 11 -150 l5 -31 81 29 c278 102 523 102 865
3 235 -68 389 -104 474 -111 l76 -6 8 49 c4 26 18 86 31 132 14 47 23 86 22
87 -4 3 -1507 115 -1546 115 l-32 0 5 -117z"/>
<path d="M6245 6002 c-401 -30 -732 -57 -734 -59 -2 -1 8 -42 22 -90 15 -49
30 -107 33 -130 6 -43 7 -43 48 -43 61 0 245 42 481 108 116 33 249 65 298 71
207 28 418 7 596 -58 l79 -29 6 37 c3 20 6 84 6 144 l0 107 -52 -1 c-29 -1
-381 -26 -783 -57z"/>
<path d="M6525 5774 c-141 -13 -241 -33 -423 -85 -114 -33 -263 -71 -332 -85
-114 -24 -140 -26 -295 -21 -193 6 -330 28 -511 82 -66 20 -164 50 -219 66
-76 23 -128 31 -220 36 -143 7 -217 -6 -417 -71 -247 -81 -450 -117 -663 -119
-159 -1 -263 18 -561 102 -273 78 -319 86 -504 86 -173 -1 -267 -18 -406 -76
l-74 -31 0 -49 c0 -27 2 -49 5 -49 3 0 32 11 65 25 259 109 508 108 900 -5
332 -95 384 -105 570 -104 231 1 379 28 661 119 309 101 447 99 792 -11 200
-63 323 -89 507 -104 202 -18 322 0 654 96 251 73 304 83 476 90 167 7 267 -7
403 -57 133 -49 127 -50 127 9 l0 50 -47 20 c-148 63 -349 99 -488 86z"/>
<path d="M2242 5560 c-80 -11 -157 -34 -251 -72 l-73 -31 5 -44 c2 -24 6 -46
9 -48 2 -2 46 12 97 31 123 47 219 64 349 64 153 0 274 -21 510 -89 282 -81
393 -101 550 -101 209 0 390 33 642 115 184 59 275 77 400 77 121 -1 207 -17
375 -71 273 -89 415 -114 645 -115 203 -1 228 3 564 99 263 75 357 90 536 89
145 -2 224 -17 355 -69 37 -15 69 -25 71 -22 3 2 6 24 7 48 l2 43 -78 34
c-108 47 -238 72 -372 72 -148 0 -275 -21 -458 -74 -371 -110 -512 -133 -715
-116 -212 17 -365 48 -547 110 -213 73 -376 93 -530 66 -49 -8 -159 -38 -244
-66 -178 -58 -346 -94 -516 -111 -215 -21 -346 -2 -710 101 -115 33 -239 64
-275 70 -95 15 -276 20 -348 10z"/>
<path d="M4385 5360 c-81 -9 -154 -27 -280 -70 -224 -76 -404 -110 -625 -117
-150 -5 -176 -3 -290 21 -69 14 -213 50 -320 81 -107 30 -238 62 -290 70 -137
21 -306 19 -407 -5 -106 -25 -223 -77 -223 -99 0 -30 41 -242 76 -396 230
-1007 694 -1981 1281 -2690 324 -391 722 -746 1101 -982 l74 -46 44 24 c123
67 406 279 599 450 829 731 1466 1853 1780 3134 51 204 105 472 105 515 0 13
-21 26 -77 49 -137 54 -195 65 -348 65 -176 0 -251 -12 -480 -79 -370 -108
-521 -129 -746 -106 -170 18 -307 47 -474 101 -226 73 -360 94 -500 80z m45
-178 c96 -62 187 -146 236 -219 21 -32 42 -62 46 -67 4 -5 24 6 44 24 45 39
109 69 147 70 15 0 27 -1 27 -2 0 -2 -7 -25 -15 -52 -22 -71 -19 -216 5 -307
11 -41 20 -96 20 -124 0 -60 -34 -137 -78 -179 l-31 -29 28 -29 c70 -72 58
-208 -22 -261 -13 -8 -29 -33 -36 -56 -6 -23 -30 -60 -52 -83 l-40 -42 -24
-526 c-13 -289 -27 -568 -30 -621 l-6 -97 25 -6 c41 -10 91 -61 105 -105 23
-79 -16 -157 -94 -186 -53 -21 -50 -4 -64 -333 -12 -264 -16 -278 -88 -313
-48 -23 -90 -19 -135 12 -44 32 -56 86 -63 279 -3 96 -8 212 -12 257 l-6 82
-33 11 c-38 13 -91 68 -100 106 -18 71 26 162 90 185 34 12 34 12 30 68 -3 31
-16 310 -30 621 l-25 565 -34 34 c-19 18 -42 54 -51 80 -10 25 -30 57 -46 69
-73 60 -87 162 -34 243 28 41 28 41 7 55 -31 22 -69 93 -81 151 -15 70 -2 131
56 258 56 124 64 180 35 254 -11 30 -18 57 -15 60 17 18 200 -59 256 -108 20
-17 40 -31 45 -31 18 0 43 71 43 120 0 39 -9 67 -45 135 -24 47 -41 85 -37 85
4 0 41 -22 82 -48z m-1082 -170 c50 -33 152 -136 152 -155 0 -4 19 7 43 27 46
38 85 56 121 56 23 0 23 0 9 -56 -17 -64 -6 -153 27 -234 28 -70 31 -93 15
-148 -11 -35 -27 -61 -56 -87 -37 -33 -39 -38 -26 -53 38 -43 33 -125 -12
-169 -16 -16 -31 -45 -35 -67 -5 -23 -20 -52 -38 -70 l-32 -31 -19 -425 c-19
-406 -19 -425 -2 -435 52 -30 68 -52 72 -101 5 -46 2 -54 -27 -87 -18 -21 -40
-37 -50 -37 -23 0 -27 -27 -36 -245 l-6 -159 -33 -33 c-44 -44 -91 -45 -137
-4 -30 27 -33 35 -39 112 -4 46 -8 122 -8 169 -2 129 -8 154 -42 167 -42 16
-71 69 -65 118 3 31 14 48 46 77 l42 38 -20 425 -20 425 -30 34 c-16 19 -33
49 -37 68 -4 18 -16 39 -26 46 -49 34 -62 113 -30 173 l20 37 -24 22 c-57 53
-59 162 -7 275 44 94 50 140 24 198 -12 26 -16 47 -11 47 25 0 138 -45 174
-69 22 -15 45 -30 52 -34 8 -5 18 4 29 24 21 41 10 81 -46 168 -22 34 -40 64
-40 67 0 6 45 -20 128 -74z m2202 30 c76 -49 138 -103 178 -156 l22 -28 38 31
c45 35 82 51 119 51 20 0 24 -3 17 -17 -4 -10 -9 -50 -12 -89 -3 -60 1 -84 27
-161 17 -50 31 -102 31 -117 0 -41 -27 -97 -67 -138 -34 -35 -35 -37 -19 -59
22 -33 21 -106 -4 -146 -11 -18 -24 -33 -29 -33 -5 0 -14 -21 -20 -46 -7 -28
-24 -58 -41 -74 l-28 -26 -16 -350 c-9 -192 -18 -385 -22 -429 l-5 -81 34 -16
c43 -20 71 -76 63 -123 -7 -34 -64 -95 -90 -95 -14 0 -26 -113 -26 -254 -1
-149 -33 -211 -108 -211 -52 0 -89 27 -101 72 -6 21 -13 118 -17 216 -5 147
-9 177 -21 177 -8 0 -30 15 -49 34 -29 29 -34 41 -34 81 0 40 5 52 33 79 17
18 37 35 43 37 7 3 5 130 -9 434 l-20 429 -28 28 c-15 15 -30 41 -34 58 -4 16
-22 48 -40 71 -46 54 -53 96 -25 153 l21 45 -24 27 c-31 34 -51 102 -44 153 2
21 21 77 41 123 39 91 44 139 21 195 -8 20 -13 38 -10 41 14 14 171 -52 211
-89 27 -25 29 -24 44 11 19 46 6 96 -45 172 -25 37 -42 68 -38 68 5 0 42 -22
83 -48z"/>
<path d="M4490 5004 c0 -79 -29 -135 -125 -243 -81 -91 -115 -160 -115 -236 0
-82 52 -195 90 -195 17 0 16 4 -6 58 -26 63 -30 133 -12 194 13 43 169 229
176 209 4 -13 -11 -38 -83 -141 -46 -66 -50 -77 -53 -140 -4 -57 0 -77 21
-124 25 -53 28 -56 63 -56 30 0 35 3 29 18 -49 117 -45 191 15 286 38 59 50
55 19 -6 -32 -61 -37 -176 -12 -243 10 -27 25 -51 33 -52 18 -3 78 73 114 145
95 187 67 358 -85 516 l-68 71 -1 -61z"/>
<path d="M4178 4872 c-4 -54 -15 -90 -53 -173 -76 -164 -76 -259 1 -336 40
-40 49 -44 77 -39 17 3 32 8 33 9 2 2 -8 32 -22 67 -50 124 -17 269 90 387
l46 51 -31 27 c-27 22 -120 75 -132 75 -3 0 -7 -31 -9 -68z"/>
<path d="M4782 4862 c-39 -36 -40 -39 -32 -77 29 -124 -13 -303 -96 -413 -14
-18 -24 -35 -22 -37 2 -2 34 -5 72 -6 60 -2 72 1 101 24 41 33 75 101 75 153
0 21 -10 71 -21 109 -16 51 -22 99 -22 178 -1 59 -4 107 -8 107 -3 0 -24 -17
-47 -38z"/>
<path d="M4393 4261 l-223 -6 -26 -26 c-18 -18 -28 -41 -31 -72 -5 -41 -2 -48
30 -83 l35 -39 284 -3 c323 -3 337 0 372 72 17 36 18 43 5 79 -8 22 -26 49
-41 60 -33 24 -83 27 -405 18z"/>
<path d="M4220 3965 c0 -4 7 -19 15 -35 29 -57 42 -60 243 -60 l184 0 39 39
c22 21 39 44 39 50 0 8 -75 11 -260 11 -143 0 -260 -2 -260 -5z"/>
<path d="M4314 3738 c3 -40 15 -287 26 -548 11 -261 23 -503 26 -537 l6 -63
109 0 c65 0 109 4 109 10 0 17 49 1091 53 1153 l3 57 -169 0 -169 0 6 -72z"/>
<path d="M4269 2491 c-32 -33 -37 -67 -15 -110 24 -45 52 -51 237 -51 l171 0
29 29 c39 39 41 100 4 136 -24 25 -26 25 -210 25 l-187 0 -29 -29z"/>
<path d="M4385 2188 c3 -46 10 -168 14 -271 10 -214 15 -227 82 -227 62 0 66
15 78 249 6 112 11 233 11 267 l0 64 -95 0 -95 0 5 -82z"/>
<path d="M3380 4884 c-1 -35 -37 -101 -88 -157 -28 -31 -59 -71 -68 -89 -23
-45 -23 -124 1 -173 16 -33 26 -41 53 -43 37 -4 37 -5 17 41 -19 45 -19 98 -1
140 14 35 125 159 126 142 0 -6 -20 -44 -45 -85 -50 -84 -58 -135 -29 -196 22
-46 31 -50 59 -24 46 43 88 138 93 212 4 61 2 74 -26 131 -36 72 -92 134 -92
101z"/>
<path d="M3569 4823 c-21 -23 -24 -34 -18 -58 22 -97 3 -214 -50 -297 l-31
-48 47 0 c80 0 143 57 143 129 0 17 -11 63 -25 104 -13 40 -28 101 -32 136
l-8 62 -26 -28z"/>
<path d="M3137 4792 c-3 -26 -22 -84 -41 -129 -39 -89 -45 -146 -21 -193 18
-34 43 -50 80 -50 l26 0 -18 33 c-26 49 -23 150 6 207 13 25 35 58 49 73 32
33 26 48 -34 83 l-41 24 -6 -48z"/>
<path d="M3115 4335 c-14 -13 -25 -36 -25 -50 0 -14 11 -37 25 -50 24 -25 25
-25 230 -25 205 0 206 0 230 25 14 13 25 36 25 50 0 14 -11 37 -25 50 -24 25
-25 25 -230 25 -205 0 -206 0 -230 -25z"/>
<path d="M3174 4121 c9 -16 23 -31 31 -35 9 -3 75 -6 146 -6 125 0 131 1 154
25 14 13 25 29 25 35 0 6 -63 10 -185 10 l-186 0 15 -29z"/>
<path d="M3243 3863 c4 -87 12 -278 19 -425 l12 -268 60 0 c34 0 66 4 72 8 9
6 45 659 44 805 l0 37 -107 0 -106 0 6 -157z"/>
<path d="M3196 3088 c-23 -32 -20 -54 10 -77 24 -19 40 -21 145 -21 106 0 121
2 139 20 25 25 26 62 2 83 -15 14 -42 17 -150 17 -124 0 -132 -1 -146 -22z"/>
<path d="M3294 2749 c4 -99 10 -187 13 -195 10 -28 65 -28 76 0 3 7 8 95 12
194 l8 182 -58 0 -58 0 7 -181z"/>
<path d="M5620 4887 c0 -44 -23 -88 -80 -152 -28 -33 -61 -77 -71 -97 -25 -50
-24 -117 3 -173 18 -37 27 -45 50 -45 33 0 32 -3 12 65 -12 43 -13 62 -4 94
10 37 81 135 124 170 15 13 16 12 7 -10 -5 -13 -25 -51 -45 -84 -43 -71 -50
-94 -42 -138 7 -36 41 -97 55 -97 14 0 79 101 96 149 8 24 15 72 15 107 0 76
-24 133 -81 196 l-38 43 -1 -28z"/>
<path d="M5810 4825 c-22 -23 -22 -27 -11 -86 18 -87 -3 -188 -55 -271 -13
-20 -24 -40 -24 -43 0 -3 19 -5 43 -5 70 0 147 67 147 129 0 11 -13 60 -30
109 -18 53 -30 111 -30 141 0 28 -4 51 -8 51 -5 0 -19 -11 -32 -25z"/>
<path d="M5382 4799 c-1 -23 -18 -77 -38 -120 -19 -44 -38 -95 -41 -113 -11
-69 38 -146 93 -146 28 0 28 -2 8 46 -34 82 -2 217 65 278 12 11 21 22 21 27
0 8 -89 69 -100 69 -4 0 -7 -19 -8 -41z"/>
<path d="M5367 4349 c-46 -27 -41 -105 9 -128 16 -7 96 -11 218 -11 180 0 195
1 220 21 33 26 36 79 6 109 -19 19 -33 20 -227 20 -127 0 -215 -5 -226 -11z"/>
<path d="M5410 4140 c0 -6 11 -22 25 -36 25 -25 27 -25 161 -22 129 3 137 4
155 27 10 13 19 27 19 32 0 5 -81 9 -180 9 -119 0 -180 -4 -180 -10z"/>
<path d="M5484 3918 c3 -57 10 -213 16 -348 6 -135 13 -278 16 -317 l6 -73 69
0 c41 0 69 4 69 10 0 28 30 656 35 738 l6 92 -112 0 -112 0 7 -102z"/>
<path d="M5460 3107 c-28 -14 -38 -54 -20 -87 10 -19 20 -20 150 -20 132 0
140 1 154 22 22 31 20 45 -9 73 -23 24 -30 25 -137 25 -71 0 -122 -5 -138 -13z"/>
<path d="M5535 2793 c9 -209 13 -241 36 -253 13 -7 25 -7 38 -1 20 11 20 8 36
294 l5 97 -60 0 -61 0 6 -137z"/>
</g>
</svg>
